<?xml version="1.0" encoding="UTF-8" standalone="no"?>
<!DOCTYPE svg PUBLIC "-//W3C//DTD SVG 1.1//EN" "http://www.w3.org/Graphics/SVG/1.1/DTD/svg11.dtd">
<svg width="100%" height="100%" viewBox="0 0 614 144" version="1.1" xmlns="http://www.w3.org/2000/svg" xmlns:xlink="http://www.w3.org/1999/xlink" xml:space="preserve" xmlns:serif="http://www.serif.com/" style="fill-rule:evenodd;clip-rule:evenodd;stroke-linejoin:round;stroke-miterlimit:2;">
    <g transform="matrix(1,0,0,1,-28,-24)">
        <g id="Page-1">
            <g id="Sizes-and-colors">
                <g id="Anagram_white_192dp">
                    <rect id="Path" x="0" y="0" width="669" height="192" style="fill:none;"/>
                    <path id="Path1" serif:id="Path" d="M119.668,164.958L58.959,101.831L58.959,164.958L28,164.958L28,28.056L58.959,28.056L58.959,88.255L117.702,28.056L154.218,28.056L89.125,93.503L156.789,164.958L119.668,164.958Z" style="fill-rule:nonzero;"/>
                    <path id="Path2" serif:id="Path" d="M163.887,28.056L195.265,28.056L195.265,140.277L252.113,140.277L252.113,164.958L163.887,164.958L163.887,28.056Z" style="fill-rule:nonzero;"/>
                    <g id="Logo" transform="matrix(1,0,0,1,247.042,24)">
                        <path id="Shape" d="M71.922,0C111.644,0 143.845,32.235 143.845,72C143.845,111.765 111.644,144 71.922,144C32.201,144 0,111.765 0,72C0,32.235 32.201,0 71.922,0ZM71.922,27.84C47.56,27.84 27.81,47.611 27.81,72C27.81,96.389 47.56,116.16 71.922,116.16C96.285,116.16 116.035,96.389 116.035,72C116.035,47.611 96.285,27.84 71.922,27.84Z"/>
                        <path id="Shape1" serif:id="Shape" d="M187.683,0C227.405,0 259.606,32.235 259.606,72C259.606,111.765 227.405,144 187.683,144C168.098,144 150.341,136.163 137.371,123.451C143.496,115.622 148.255,106.672 151.289,96.96C159.238,108.555 172.573,116.16 187.683,116.16C212.046,116.16 231.796,96.389 231.796,72C231.796,47.611 212.046,27.84 187.683,27.84C172.573,27.84 159.238,35.445 151.288,47.041C148.255,37.328 143.496,28.378 137.373,20.549C150.341,7.837 168.098,0 187.683,0ZM129.666,29.44C138.408,41.362 143.571,56.077 143.571,72C143.571,87.923 138.408,102.638 129.666,114.56C120.924,102.638 115.761,87.923 115.761,72C115.761,56.094 120.913,41.393 129.638,29.478L129.666,29.44Z"/>
                    </g>
                    <path id="Path3" serif:id="Path" d="M641.521,28.056L579.771,164.958L555.405,164.958L493.465,28.056L525.042,28.056L567.891,127.272L610.741,28.056L641.521,28.056Z" style="fill-rule:nonzero;"/>
                </g>
            </g>
        </g>
    </g>
</svg>
