<?xml version="1.0" encoding="UTF-8"?>
<svg width="614px" height="144px" viewBox="0 0 614 144" version="1.1" xmlns="http://www.w3.org/2000/svg" xmlns:xlink="http://www.w3.org/1999/xlink">
    <!-- Generator: Sketch 64 (93537) - https://sketch.com -->
    <title>Anagram_white_192dp</title>
    <desc>Created with Sketch.</desc>
    <g id="Page-1" stroke="none" stroke-width="1" fill="none" fill-rule="evenodd">
        <g id="Sizes-and-colors" transform="translate(-130.000000, -709.000000)">
            <g id="Anagram_white_192dp" transform="translate(102.000000, 685.000000)">
                <rect id="Path" x="9.09494702e-13" y="0" width="669" height="192"></rect>
                <polygon id="Path" fill="#FFFFFF" fill-rule="nonzero" points="119.667941 164.957746 58.9591934 101.830986 58.9591934 164.957746 28 164.957746 28 28.056338 58.9591934 28.056338 58.9591934 88.2549296 117.702278 28.056338 154.21825 28.056338 89.1245613 93.5028169 156.788732 164.957746"></polygon>
                <polygon id="Path" fill="#FFFFFF" fill-rule="nonzero" points="163.887324 28.056338 195.264862 28.056338 195.264862 140.277465 252.112676 140.277465 252.112676 164.957746 163.887324 164.957746"></polygon>
                <g id="Logo" transform="translate(247.042254, 24.000000)" fill="#FFFFFF">
                    <path d="M71.9224051,0 C111.644053,0 143.84481,32.235498 143.84481,72 C143.84481,111.764502 111.644053,144 71.9224051,144 C32.2007576,144 0,111.764502 0,72 C0,32.235498 32.2007576,0 71.9224051,0 Z M71.9224051,27.84 C47.5597947,27.84 27.8099967,47.6111054 27.8099967,72 C27.8099967,96.3888946 47.5597947,116.16 71.9224051,116.16 C96.2850156,116.16 116.034814,96.3888946 116.034814,72 C116.034814,47.6111054 96.2850156,27.84 71.9224051,27.84 Z" id="Shape"></path>
                    <path d="M187.683229,0 C227.404876,0 259.605634,32.235498 259.605634,72 C259.605634,111.764502 227.404876,144 187.683229,144 C168.098024,144 150.341219,136.163248 137.371134,123.451258 C143.496469,115.622384 148.254765,106.672417 151.289058,96.959868 C159.237603,108.554768 172.573224,116.16 187.683229,116.16 C212.045839,116.16 231.795637,96.3888946 231.795637,72 C231.795637,47.6111054 212.045839,27.84 187.683229,27.84 C172.573224,27.84 159.237603,35.4452323 151.287649,47.0405163 C148.254765,37.3275831 143.496469,28.3776163 137.372896,20.5493445 C150.341219,7.83675165 168.098024,0 187.683229,0 Z M129.666021,29.4395938 C138.407696,41.3616599 143.57082,56.0772233 143.57082,72 C143.57082,87.9227767 138.407696,102.63834 129.666021,114.560406 C120.923948,102.63834 115.760824,87.9227767 115.760824,72 C115.760824,56.0941992 120.912945,41.393039 129.637676,29.4777351 L129.666021,29.4395938 Z" id="Shape"></path>
                </g>
                <polygon id="Path" fill="#FFFFFF" fill-rule="nonzero" points="641.521127 28.056338 579.770893 164.957746 555.40479 164.957746 493.464789 28.056338 525.042044 28.056338 567.891469 127.271831 610.740893 28.056338"></polygon>
            </g>
        </g>
    </g>
</svg>